<?xml version="1.0" standalone="no"?>
<!DOCTYPE svg PUBLIC "-//W3C//DTD SVG 20010904//EN"
 "http://www.w3.org/TR/2001/REC-SVG-20010904/DTD/svg10.dtd">
<svg version="1.0" xmlns="http://www.w3.org/2000/svg"
 width="700.000000pt" height="700.000000pt" viewBox="0 0 700.000000 700.000000"
 preserveAspectRatio="xMidYMid meet">

<g transform="translate(0.000000,700.000000) scale(0.100000,-0.100000)"
fill="#000000" stroke="none">
<path d="M4919 2690 c-94 -16 -159 -32 -159 -38 0 -4 24 -16 53 -26 203 -71
417 -260 524 -464 82 -155 116 -295 116 -478 l1 -122 65 -16 c90 -21 254 -105
322 -163 123 -106 217 -252 260 -406 31 -113 32 -296 1 -412 -64 -239 -230
-430 -462 -532 l-75 -33 310 3 310 3 93 49 c51 28 102 55 114 62 30 16 188
175 188 189 0 6 7 18 16 25 13 11 34 48 38 69 2 7 56 122 69 145 6 12 13 96
15 202 4 153 2 190 -13 237 -10 31 -22 56 -26 56 -5 0 -9 9 -9 20 0 11 -9 35
-19 54 -11 19 -18 36 -15 38 2 3 -5 13 -16 23 -11 10 -20 23 -20 29 0 6 -49
60 -108 119 -90 90 -122 115 -195 151 -49 25 -106 47 -127 51 -22 4 -42 11
-46 16 -3 5 -18 9 -35 9 l-29 0 0 129 c0 76 -4 132 -10 136 -5 3 -10 25 -10
48 0 23 -9 66 -19 95 -11 29 -19 54 -19 55 2 15 -26 88 -37 97 -8 7 -15 20
-15 30 0 10 -7 23 -15 30 -8 7 -15 18 -15 25 0 6 -9 20 -20 30 -11 10 -20 23
-20 29 0 7 -25 36 -55 66 -32 31 -55 63 -55 75 0 27 -122 124 -228 182 -180
99 -433 145 -623 113z"/>
<path d="M1075 2056 c2 -12 12 -59 21 -106 56 -289 215 -569 406 -716 60 -46
66 -44 48 16 -47 157 -54 514 -14 703 5 23 2 27 -18 27 -13 0 -28 4 -34 9 -5
5 -36 16 -69 26 -33 10 -64 22 -70 27 -5 4 -22 8 -38 8 -15 0 -36 4 -45 9 -9
5 -56 11 -104 13 -84 4 -87 4 -83 -16z"/>
</g>
</svg>
